{
  "accessors": [
    {
      "bufferView": 2,
      "componentType": 5126,
      "count": 55918,
      "max": [
        2.5966708660125732,
        1.5072641372680664,
        2.0217466354370117
      ],
      "min": [
        -5.0867776870727539,
        -1.5066537857055664,
        -1.0908921957015991
      ],
      "type": "VEC3"
    },
    {
      "bufferView": 2,
      "byteOffset": 671016,
      "componentType": 5126,
      "count": 55918,
      "max": [
        1,
        1,
        1
      ],
      "min": [
        -1,
        -1,
        -1
      ],
      "type": "VEC3"
    },
    {
      "bufferView": 3,
      "componentType": 5126,
      "count": 55918,
      "max": [
        1,
        1,
        1,
        1
      ],
      "min": [
        -1,
        -1,
        -1,
        -1
      ],
      "type": "VEC4"
    },
    {
      "bufferView": 3,
      "byteOffset": 894688,
      "componentType": 5126,
      "count": 55918,
      "max": [
        1,
        1,
        1,
        1
      ],
      "min": [
        0.027450980618596077,
        0,
        0.019607843831181526,
        1
      ],
      "type": "VEC4"
    },
    {
      "bufferView": 1,
      "componentType": 5126,
      "count": 55918,
      "max": [
        0.9872015118598938,
        0.99919462203979492
      ],
      "min": [
        0.00075598590774461627,
        0.00075598590774461627
      ],
      "type": "VEC2"
    },
    {
      "bufferView": 0,
      "componentType": 5125,
      "count": 250584,
      "max": [
        55917
      ],
      "min": [
        0
      ],
      "type": "SCALAR"
    },
    {
      "bufferView": 2,
      "byteOffset": 1342032,
      "componentType": 5126,
      "count": 1314,
      "max": [
        1.0100312232971191,
        0.84972590208053589,
        1.8548885583877563
      ],
      "min": [
        -0.62197256088256836,
        -0.84972590208053589,
        1.0382190942764282
      ],
      "type": "VEC3"
    },
    {
      "bufferView": 2,
      "byteOffset": 1357800,
      "componentType": 5126,
      "count": 1314,
      "max": [
        0.9999997615814209,
        0.99863475561141968,
        0.79240339994430542
      ],
      "min": [
        -0.99999988079071045,
        -0.99863594770431519,
        -0.77918189764022827
      ],
      "type": "VEC3"
    },
    {
      "bufferView": 3,
      "byteOffset": 1789376,
      "componentType": 5126,
      "count": 1314,
      "max": [
        0.99841880798339844,
        1,
        0.99982905387878418,
        1
      ],
      "min": [
        -0.75088679790496826,
        -0.99999988079071045,
        -0.5976412296295166,
        1
      ],
      "type": "VEC4"
    },
    {
      "bufferView": 3,
      "byteOffset": 1810400,
      "componentType": 5126,
      "count": 1314,
      "max": [
        0.65098041296005249,
        0.78823530673980713,
        0.090196080505847931,
        1
      ],
      "min": [
        0.65098041296005249,
        0.78823530673980713,
        0.090196080505847931,
        1
      ],
      "type": "VEC4"
    },
    {
      "bufferView": 1,
      "byteOffset": 447344,
      "componentType": 5126,
      "count": 1314,
      "max": [
        0.96317338943481445,
        0.95676261186599731
      ],
      "min": [
        0.14139033854007721,
        0.26950094103813171
      ],
      "type": "VEC2"
    },
    {
      "bufferView": 0,
      "byteOffset": 1002336,
      "componentType": 5125,
      "count": 6672,
      "max": [
        1313
      ],
      "min": [
        0
      ],
      "type": "SCALAR"
    }
  ],
  "asset": {
    "extras": {
      "author": "grs (https://sketchfab.com/sgrosjean)",
      "license": "CC-BY-4.0 (http://creativecommons.org/licenses/by/4.0/)",
      "source": "https://sketchfab.com/3d-models/boat09-2c603cab67f447d1b8ec8c9f45a30f36",
      "title": "Boat09"
    },
    "generator": "Sketchfab-8.0.0",
    "version": "2.0"
  },
  "bufferViews": [
    {
      "buffer": 0,
      "byteLength": 1029024,
      "byteOffset": 0,
      "name": "floatBufferViews",
      "target": 34963
    },
    {
      "buffer": 0,
      "byteLength": 457856,
      "byteOffset": 1029024,
      "byteStride": 8,
      "name": "floatBufferViews",
      "target": 34962
    },
    {
      "buffer": 0,
      "byteLength": 1373568,
      "byteOffset": 1486880,
      "byteStride": 12,
      "name": "floatBufferViews",
      "target": 34962
    },
    {
      "buffer": 0,
      "byteLength": 1831424,
      "byteOffset": 2860448,
      "byteStride": 16,
      "name": "floatBufferViews",
      "target": 34962
    }
  ],
  "buffers": [
    {
      "byteLength": 4691872,
      "uri": "scene.bin"
    }
  ],
  "images": [
    {
      "uri": "textures/Boatmat_baseColor.png"
    },
    {
      "uri": "textures/Boatmat_metallicRoughness.png"
    },
    {
      "uri": "textures/Boatmat_normal.png"
    },
    {
      "uri": "textures/Windows_baseColor.png"
    },
    {
      "uri": "textures/Windows_metallicRoughness.png"
    },
    {
      "uri": "textures/Windows_normal.png"
    }
  ],
  "materials": [
    {
      "doubleSided": true,
      "emissiveFactor": [
        0,
        0,
        0
      ],
      "name": "Boatmat",
      "normalTexture": {
        "index": 2,
        "scale": 1,
        "texCoord": 0
      },
      "pbrMetallicRoughness": {
        "baseColorFactor": [
          1,
          1,
          1,
          1
        ],
        "baseColorTexture": {
          "index": 0,
          "texCoord": 0
        },
        "metallicFactor": 1,
        "metallicRoughnessTexture": {
          "index": 1,
          "texCoord": 0
        },
        "roughnessFactor": 1
      }
    },
    {
      "alphaMode": "BLEND",
      "doubleSided": true,
      "emissiveFactor": [
        0,
        0,
        0
      ],
      "name": "Windows",
      "normalTexture": {
        "index": 5,
        "scale": 1,
        "texCoord": 0
      },
      "pbrMetallicRoughness": {
        "baseColorFactor": [
          1,
          1,
          1,
          0.29052085876464845
        ],
        "baseColorTexture": {
          "index": 3,
          "texCoord": 0
        },
        "metallicFactor": 1,
        "metallicRoughnessTexture": {
          "index": 4,
          "texCoord": 0
        },
        "roughnessFactor": 1
      }
    }
  ],
  "meshes": [
    {
      "name": "Boat_LOD0_Boatmat_0",
      "primitives": [
        {
          "attributes": {
            "COLOR_0": 3,
            "NORMAL": 1,
            "POSITION": 0,
            "TANGENT": 2,
            "TEXCOORD_0": 4
          },
          "indices": 5,
          "material": 0,
          "mode": 4
        }
      ]
    },
    {
      "name": "Boat_LOD0_Windows_0",
      "primitives": [
        {
          "attributes": {
            "COLOR_0": 9,
            "NORMAL": 7,
            "POSITION": 6,
            "TANGENT": 8,
            "TEXCOORD_0": 10
          },
          "indices": 11,
          "material": 1,
          "mode": 4
        }
      ]
    }
  ],
  "nodes": [
    {
      "children": [
        1
      ],
      "name": "RootNode (gltf orientation matrix)",
      "rotation": [
        -0.70710678118654746,
        -0,
        -0,
        0.70710678118654757
      ]
    },
    {
      "children": [
        2
      ],
      "name": "RootNode (model correction matrix)"
    },
    {
      "children": [
        3
      ],
      "matrix": [
        1,
        0,
        0,
        0,
        0,
        0,
        1,
        0,
        0,
        -1,
        0,
        0,
        0,
        0,
        0,
        1
      ],
      "name": "7d71173e343841498880d420981bff98.fbx"
    },
    {
      "children": [
        4
      ],
      "name": "RootNode"
    },
    {
      "children": [
        5,
        6
      ],
      "matrix": [
        100,
        0,
        0,
        0,
        0,
        -1.6292067939183141e-05,
        -99.999999999998678,
        0,
        0,
        99.999999999998678,
        -1.6292067939183141e-05,
        0,
        46.036876678466797,
        44.230911254882812,
        251.28280639648438,
        1
      ],
      "name": "Boat_LOD0"
    },
    {
      "mesh": 0,
      "name": "Boat_LOD0_Boatmat_0"
    },
    {
      "mesh": 1,
      "name": "Boat_LOD0_Windows_0"
    }
  ],
  "samplers": [
    {
      "magFilter": 9729,
      "minFilter": 9987,
      "wrapS": 10497,
      "wrapT": 10497
    }
  ],
  "scene": 0,
  "scenes": [
    {
      "name": "OSG_Scene",
      "nodes": [
        0
      ]
    }
  ],
  "textures": [
    {
      "sampler": 0,
      "source": 0
    },
    {
      "sampler": 0,
      "source": 1
    },
    {
      "sampler": 0,
      "source": 2
    },
    {
      "sampler": 0,
      "source": 3
    },
    {
      "sampler": 0,
      "source": 4
    },
    {
      "sampler": 0,
      "source": 5
    }
  ]
}

