{
  "accessors": [
    {
      "bufferView": 2,
      "componentType": 5126,
      "count": 180,
      "max": [
        1,
        2.554671049118042,
        1
      ],
      "min": [
        -1,
        -1.0000002384185791,
        -1.0000014305114746
      ],
      "type": "VEC3"
    },
    {
      "bufferView": 2,
      "byteOffset": 2160,
      "componentType": 5126,
      "count": 180,
      "max": [
        0.99604892730712891,
        1,
        0.99604666233062744
      ],
      "min": [
        -0.99604713916778564,
        -1,
        -0.99604541063308716
      ],
      "type": "VEC3"
    },
    {
      "bufferView": 3,
      "componentType": 5126,
      "count": 180,
      "max": [
        1,
        0.079867348074913025,
        0.99817043542861938,
        1
      ],
      "min": [
        -0.99817031621932983,
        -0.066284112632274628,
        -0.99817043542861938,
        1
      ],
      "type": "VEC4"
    },
    {
      "bufferView": 1,
      "componentType": 5126,
      "count": 180,
      "max": [
        0.65625,
        1
      ],
      "min": [
        0.34375,
        0
      ],
      "type": "VEC2"
    },
    {
      "bufferView": 1,
      "byteOffset": 1440,
      "componentType": 5126,
      "count": 180,
      "max": [
        0.65625,
        1
      ],
      "min": [
        0.34375,
        0
      ],
      "type": "VEC2"
    },
    {
      "bufferView": 1,
      "byteOffset": 2880,
      "componentType": 5126,
      "count": 180,
      "max": [
        0.65625,
        1
      ],
      "min": [
        0.34375,
        0
      ],
      "type": "VEC2"
    },
    {
      "bufferView": 1,
      "byteOffset": 4320,
      "componentType": 5126,
      "count": 180,
      "max": [
        0.65625,
        1
      ],
      "min": [
        0.34375,
        0
      ],
      "type": "VEC2"
    },
    {
      "bufferView": 1,
      "byteOffset": 5760,
      "componentType": 5126,
      "count": 180,
      "max": [
        0.65625,
        1
      ],
      "min": [
        0.34375,
        0
      ],
      "type": "VEC2"
    },
    {
      "bufferView": 0,
      "componentType": 5125,
      "count": 588,
      "max": [
        179
      ],
      "min": [
        0
      ],
      "type": "SCALAR"
    },
    {
      "bufferView": 2,
      "byteOffset": 4320,
      "componentType": 5126,
      "count": 52,
      "max": [
        1,
        1,
        1
      ],
      "min": [
        -1,
        -1,
        -1
      ],
      "type": "VEC3"
    },
    {
      "bufferView": 2,
      "byteOffset": 4944,
      "componentType": 5126,
      "count": 52,
      "max": [
        1,
        1,
        1
      ],
      "min": [
        -1,
        -1,
        -1
      ],
      "type": "VEC3"
    },
    {
      "bufferView": 3,
      "byteOffset": 2880,
      "componentType": 5126,
      "count": 52,
      "max": [
        1,
        0,
        1,
        1
      ],
      "min": [
        -1,
        0,
        -1,
        1
      ],
      "type": "VEC4"
    },
    {
      "bufferView": 1,
      "byteOffset": 7200,
      "componentType": 5126,
      "count": 52,
      "max": [
        0.65625,
        1
      ],
      "min": [
        0.34375,
        0
      ],
      "type": "VEC2"
    },
    {
      "bufferView": 0,
      "byteOffset": 2352,
      "componentType": 5125,
      "count": 144,
      "max": [
        51
      ],
      "min": [
        0
      ],
      "type": "SCALAR"
    },
    {
      "bufferView": 2,
      "byteOffset": 5568,
      "componentType": 5126,
      "count": 318,
      "max": [
        0.85058760643005371,
        -0.71473896503448486,
        10.11155891418457
      ],
      "min": [
        -0.85058856010437012,
        -1.5865535736083984,
        -0.22158831357955933
      ],
      "type": "VEC3"
    },
    {
      "bufferView": 2,
      "byteOffset": 9384,
      "componentType": 5126,
      "count": 318,
      "max": [
        0.99882048368453979,
        1,
        0.99603503942489624
      ],
      "min": [
        -0.99603497982025146,
        -0.99997276067733765,
        -0.99603503942489624
      ],
      "type": "VEC3"
    },
    {
      "bufferView": 3,
      "byteOffset": 3712,
      "componentType": 5126,
      "count": 318,
      "max": [
        1,
        1,
        0.99248224496841431,
        1
      ],
      "min": [
        -0.96477848291397095,
        -1,
        -0.9916490912437439,
        -1
      ],
      "type": "VEC4"
    },
    {
      "bufferView": 1,
      "byteOffset": 7616,
      "componentType": 5126,
      "count": 318,
      "max": [
        0.87281006574630737,
        0.99800801277160645
      ],
      "min": [
        0.0017421357333660126,
        0.0019920319318771362
      ],
      "type": "VEC2"
    },
    {
      "bufferView": 0,
      "byteOffset": 2928,
      "componentType": 5125,
      "count": 936,
      "max": [
        317
      ],
      "min": [
        0
      ],
      "type": "SCALAR"
    }
  ],
  "asset": {
    "extras": {
      "author": "Jomo (https://sketchfab.com/jomosexer)",
      "license": "CC-BY-4.0 (http://creativecommons.org/licenses/by/4.0/)",
      "source": "https://sketchfab.com/3d-models/fishing-rod-7e3a81f8411945088c9221e985339248",
      "title": "Fishing Rod"
    },
    "generator": "Sketchfab-7.20.0",
    "version": "2.0"
  },
  "bufferViews": [
    {
      "buffer": 0,
      "byteLength": 6672,
      "byteOffset": 0,
      "name": "floatBufferViews",
      "target": 34963
    },
    {
      "buffer": 0,
      "byteLength": 10160,
      "byteOffset": 6672,
      "byteStride": 8,
      "name": "floatBufferViews",
      "target": 34962
    },
    {
      "buffer": 0,
      "byteLength": 13200,
      "byteOffset": 16832,
      "byteStride": 12,
      "name": "floatBufferViews",
      "target": 34962
    },
    {
      "buffer": 0,
      "byteLength": 8800,
      "byteOffset": 30032,
      "byteStride": 16,
      "name": "floatBufferViews",
      "target": 34962
    }
  ],
  "buffers": [
    {
      "byteLength": 38832,
      "uri": "scene.bin"
    }
  ],
  "images": [
    {
      "uri": "textures/StingrayPBS2_baseColor.png"
    },
    {
      "uri": "textures/StingrayPBS2_metallicRoughness.png"
    },
    {
      "uri": "textures/StingrayPBS2_normal.png"
    },
    {
      "uri": "textures/lambert2_baseColor.jpeg"
    }
  ],
  "materials": [
    {
      "doubleSided": true,
      "name": "StingrayPBS2",
      "normalTexture": {
        "index": 2,
        "scale": 1,
        "texCoord": 2
      },
      "occlusionTexture": {
        "index": 1,
        "strength": 1,
        "texCoord": 0
      },
      "pbrMetallicRoughness": {
        "baseColorFactor": [
          1,
          1,
          1,
          1
        ],
        "baseColorTexture": {
          "index": 0,
          "texCoord": 0
        },
        "metallicFactor": 1,
        "metallicRoughnessTexture": {
          "index": 1,
          "texCoord": 1
        },
        "roughnessFactor": 1
      }
    },
    {
      "doubleSided": true,
      "emissiveFactor": [
        0,
        0,
        0
      ],
      "name": "lambert1",
      "pbrMetallicRoughness": {
        "baseColorFactor": [
          0.5,
          0.5,
          0.5,
          1
        ],
        "metallicFactor": 0,
        "roughnessFactor": 0.59999999999999998
      }
    },
    {
      "doubleSided": true,
      "emissiveFactor": [
        0.0062197497148683122,
        0.034381442945739742,
        0.0025761404058348516
      ],
      "name": "lambert2",
      "pbrMetallicRoughness": {
        "baseColorFactor": [
          1,
          1,
          1,
          1
        ],
        "baseColorTexture": {
          "index": 3,
          "texCoord": 0
        },
        "metallicFactor": 0,
        "roughnessFactor": 0.59999999999999998
      }
    }
  ],
  "meshes": [
    {
      "name": "pasted__pCylinder1_StingrayPBS2_0",
      "primitives": [
        {
          "attributes": {
            "NORMAL": 1,
            "POSITION": 0,
            "TANGENT": 2,
            "TEXCOORD_0": 3,
            "TEXCOORD_1": 4,
            "TEXCOORD_2": 5,
            "TEXCOORD_3": 6,
            "TEXCOORD_4": 7
          },
          "indices": 8,
          "material": 0,
          "mode": 4
        }
      ]
    },
    {
      "name": "pCylinder2_lambert1_0",
      "primitives": [
        {
          "attributes": {
            "NORMAL": 10,
            "POSITION": 9,
            "TANGENT": 11,
            "TEXCOORD_0": 12
          },
          "indices": 13,
          "material": 1,
          "mode": 4
        }
      ]
    },
    {
      "name": "pCylinder3_lambert2_0",
      "primitives": [
        {
          "attributes": {
            "NORMAL": 15,
            "POSITION": 14,
            "TANGENT": 16,
            "TEXCOORD_0": 17
          },
          "indices": 18,
          "material": 2,
          "mode": 4
        }
      ]
    }
  ],
  "nodes": [
    {
      "children": [
        1
      ],
      "name": "RootNode (gltf orientation matrix)",
      "rotation": [
        -0.70710678118654746,
        -0,
        -0,
        0.70710678118654757
      ]
    },
    {
      "children": [
        2
      ],
      "name": "RootNode (model correction matrix)"
    },
    {
      "children": [
        3
      ],
      "matrix": [
        1,
        0,
        0,
        0,
        0,
        0,
        1,
        0,
        0,
        -1,
        0,
        0,
        0,
        0,
        0,
        1
      ],
      "name": "Fishing Rod.fbx"
    },
    {
      "children": [
        4,
        7,
        9
      ],
      "name": "RootNode"
    },
    {
      "children": [
        5
      ],
      "matrix": [
        1.5609965324401855,
        0,
        0,
        0,
        0,
        1.5609965324401855,
        0,
        0,
        0,
        0,
        1.5609965324401855,
        0,
        2.2200181248877016e-08,
        -16.310384750366211,
        -11.681144714355469,
        1
      ],
      "name": "group"
    },
    {
      "children": [
        6
      ],
      "matrix": [
        0.26658952236175537,
        0,
        0,
        0,
        0,
        2.2999206368387859,
        1.929862558108441,
        0,
        0,
        -0.17136044184638899,
        0.20421942219896519,
        0,
        0.024299431592226028,
        15.160465240478516,
        8.9970369338989258,
        1
      ],
      "name": "pasted__pCylinder1"
    },
    {
      "mesh": 0,
      "name": "pasted__pCylinder1_StingrayPBS2_0"
    },
    {
      "children": [
        8
      ],
      "matrix": [
        -0.0062029138207435608,
        7.5963785559604808e-19,
        0,
        0,
        7.6608677852500068e-16,
        6.2555732727050781,
        7.6608677852500068e-16,
        0,
        7.8706861335304369e-35,
        6.426902956028069e-19,
        -0.0052479645237326622,
        0,
        0.032242659479379654,
        10.217788696289062,
        10.027230262756348,
        1
      ],
      "name": "pCylinder2"
    },
    {
      "mesh": 1,
      "name": "pCylinder2_lambert1_0"
    },
    {
      "children": [
        10
      ],
      "matrix": [
        0.018320843577384949,
        0,
        0,
        0,
        0,
        0.55158752202987671,
        0,
        0,
        0,
        0,
        0.018904810771346092,
        0,
        0.030648667365312576,
        4.3082218170166016,
        10.032773017883301,
        1
      ],
      "name": "pCylinder3"
    },
    {
      "mesh": 2,
      "name": "pCylinder3_lambert2_0"
    }
  ],
  "samplers": [
    {
      "magFilter": 9729,
      "minFilter": 9987,
      "wrapS": 10497,
      "wrapT": 10497
    }
  ],
  "scene": 0,
  "scenes": [
    {
      "name": "OSG_Scene",
      "nodes": [
        0
      ]
    }
  ],
  "textures": [
    {
      "sampler": 0,
      "source": 0
    },
    {
      "sampler": 0,
      "source": 1
    },
    {
      "sampler": 0,
      "source": 2
    },
    {
      "sampler": 0,
      "source": 3
    }
  ]
}

